<svg xmlns="http://www.w3.org/2000/svg" viewBox="0 0 640 400">
  <defs>
    <linearGradient id="gBlue" x1="0" y1="0" x2="0" y2="1">
      <stop offset="0" stop-color="#3b82f6" stop-opacity=".35"/><stop offset="1" stop-color="#3b82f6" stop-opacity="0"/>
    </linearGradient>
  </defs>
  <clipPath id="cw3"><rect x="14" y="14" width="612" height="372" rx="12"/></clipPath>
  <rect width="640" height="400" fill="#070a12"/>
  <rect x="14" y="14" width="612" height="372" rx="12" fill="#0d1424" stroke="#1b2547"/>
  <g clip-path="url(#cw3)">
    <rect x="32" y="34" width="150" height="12" rx="6" fill="#dbe2f2"/>
    <rect x="528" y="28" width="80" height="22" rx="11" fill="none" stroke="#f4a52e"/><rect x="552" y="36" width="32" height="6" rx="3" fill="#f4a52e"/>
    <rect x="32" y="60" width="176" height="64" rx="10" fill="#111d3c" stroke="#22305a"/><rect x="48" y="74" width="56" height="7" rx="3.5" fill="#4a5f95"/><rect x="48" y="89" width="70" height="12" rx="6" fill="#e9edf9"/><polyline points="150,106 160,98 170,102 184,90 194,94" fill="none" stroke="#f4a52e" stroke-width="2"/>
    <rect x="232" y="60" width="176" height="64" rx="10" fill="#111d3c" stroke="#22305a"/><rect x="248" y="74" width="56" height="7" rx="3.5" fill="#4a5f95"/><rect x="248" y="89" width="70" height="12" rx="6" fill="#e9edf9"/><polyline points="350,106 360,98 370,102 384,90 394,94" fill="none" stroke="#f4a52e" stroke-width="2"/>
    <rect x="432" y="60" width="176" height="64" rx="10" fill="#111d3c" stroke="#22305a"/><rect x="448" y="74" width="56" height="7" rx="3.5" fill="#4a5f95"/><rect x="448" y="89" width="70" height="12" rx="6" fill="#e9edf9"/><polyline points="550,106 560,98 570,102 584,90 594,94" fill="none" stroke="#2dd4bf" stroke-width="2"/>
    <rect x="32" y="148" width="320" height="140" rx="10" fill="#111d3c" stroke="#22305a"/>
    <rect x="48" y="162" width="84" height="8" rx="4" fill="#93a0c4"/>
    <rect x="48" y="196" width="288" height="1" fill="#1a2a4e"/><rect x="48" y="232" width="288" height="1" fill="#1a2a4e"/>
    <rect x="56" y="224" width="18" height="44" fill="#2f6fed"/><rect x="96" y="198" width="18" height="70" fill="#2f6fed"/><rect x="136" y="216" width="18" height="52" fill="#2f6fed"/><rect x="176" y="182" width="18" height="86" fill="#2f6fed"/><rect x="216" y="206" width="18" height="62" fill="#2f6fed"/><rect x="256" y="172" width="18" height="96" fill="#f4a52e"/><rect x="296" y="194" width="18" height="74" fill="#2f6fed"/>
    <rect x="48" y="268" width="288" height="2" fill="#22305a"/>
    <rect x="368" y="148" width="240" height="140" rx="10" fill="#111d3c" stroke="#22305a"/>
    <g transform="rotate(-90 428 218)">
      <circle cx="428" cy="218" r="42" fill="none" stroke="#22305a" stroke-width="14"/>
      <circle cx="428" cy="218" r="42" fill="none" stroke="#f4a52e" stroke-width="14" stroke-dasharray="105.6 158.3"/>
      <circle cx="428" cy="218" r="42" fill="none" stroke="#3b82f6" stroke-width="14" stroke-dasharray="84.4 179.5" stroke-dashoffset="-105.6"/>
      <circle cx="428" cy="218" r="42" fill="none" stroke="#2dd4bf" stroke-width="14" stroke-dasharray="73.9 190" stroke-dashoffset="-190"/>
    </g>
    <rect x="412" y="214" width="32" height="7" rx="3.5" fill="#e9edf9"/><rect x="418" y="226" width="20" height="5" rx="2.5" fill="#4a5f95"/>
    <circle cx="504" cy="186" r="4" fill="#f4a52e"/><rect x="516" y="183" width="48" height="7" rx="3.5" fill="#4a5f95"/>
    <circle cx="504" cy="210" r="4" fill="#3b82f6"/><rect x="516" y="207" width="40" height="7" rx="3.5" fill="#4a5f95"/>
    <circle cx="504" cy="234" r="4" fill="#2dd4bf"/><rect x="516" y="231" width="44" height="7" rx="3.5" fill="#4a5f95"/>
    <rect x="32" y="304" width="576" height="68" rx="10" fill="#111d3c" stroke="#22305a"/>
    <path d="M56 356 L110 340 L164 346 L218 326 L272 332 L326 314 L380 318 L434 302 L488 308 L542 292 L584 296 L584 370 L56 370 Z" fill="url(#gBlue)"/>
    <polyline points="56,356 110,340 164,346 218,326 272,332 326,314 380,318 434,302 488,308 542,292 584,296" fill="none" stroke="#6ea8ff" stroke-width="2.5" stroke-linejoin="round"/>
    <circle cx="272" cy="332" r="3" fill="#f4a52e"/><circle cx="434" cy="302" r="3" fill="#f4a52e"/><circle cx="542" cy="292" r="3" fill="#f4a52e"/>
  </g>
</svg>
